<svg width="320" height="180" viewBox="0 0 320 180" xmlns="http://www.w3.org/2000/svg">
  <defs>
    <linearGradient id="bg9" x1="0%" y1="0%" x2="100%" y2="100%">
      <stop offset="0%" style="stop-color:#96c93d"/>
      <stop offset="100%" style="stop-color:#00b09b"/>
    </linearGradient>
  </defs>
  <rect width="320" height="180" fill="url(#bg9)"/>
  <!-- Sun -->
  <circle cx="270" cy="40" r="25" fill="#fff176"/>
  <line x1="270" y1="10" x2="270" y2="0" stroke="#fff176" stroke-width="3"/>
  <line x1="295" y1="20" x2="302" y2="13" stroke="#fff176" stroke-width="3"/>
  <line x1="300" y1="40" x2="310" y2="40" stroke="#fff176" stroke-width="3"/>
  <!-- Coffee Cup -->
  <rect x="55" y="75" width="50" height="45" rx="5" fill="white"/>
  <ellipse cx="80" cy="75" rx="25" ry="8" fill="white"/>
  <ellipse cx="80" cy="78" rx="18" ry="5" fill="#8d6e63"/>
  <path d="M105 85 Q120 95 105 105" stroke="white" stroke-width="5" fill="none"/>
  <!-- Steam -->
  <path d="M70 60 Q65 50 70 40" stroke="rgba(255,255,255,0.6)" stroke-width="2" fill="none"/>
  <path d="M80 60 Q85 50 80 40" stroke="rgba(255,255,255,0.6)" stroke-width="2" fill="none"/>
  <path d="M90 60 Q85 50 90 40" stroke="rgba(255,255,255,0.6)" stroke-width="2" fill="none"/>
  <!-- Product in hand -->
  <ellipse cx="200" cy="110" rx="35" ry="25" fill="rgba(255,255,255,0.25)"/>
  <rect x="175" y="55" width="50" height="70" rx="8" fill="white"/>
  <rect x="180" y="50" width="40" height="15" rx="5" fill="#00b09b"/>
  <rect x="185" y="75" width="30" height="38" rx="4" fill="#e8f5e9"/>
  <!-- Hand holding -->
  <ellipse cx="220" cy="100" rx="15" ry="20" fill="rgba(255,220,190,0.9)"/>
  <ellipse cx="155" cy="100" rx="15" ry="20" fill="rgba(255,220,190,0.9)"/>
  <!-- Plant decoration -->
  <ellipse cx="45" cy="145" rx="20" ry="8" fill="rgba(255,255,255,0.2)"/>
  <line x1="45" y1="145" x2="45" y2="110" stroke="#4caf50" stroke-width="3"/>
  <ellipse cx="38" cy="115" rx="10" ry="6" fill="#81c784" transform="rotate(-30 38 115)"/>
  <ellipse cx="52" cy="120" rx="10" ry="6" fill="#81c784" transform="rotate(30 52 120)"/>
  <text x="160" y="168" font-family="Arial, sans-serif" font-size="11" fill="white" text-anchor="middle" font-weight="500">Lifestyle</text>
</svg>
