<svg width="320" height="180" viewBox="0 0 320 180" xmlns="http://www.w3.org/2000/svg">
  <defs>
    <linearGradient id="pixarBg" x1="0%" y1="0%" x2="100%" y2="100%">
      <stop offset="0%" style="stop-color:#6C63FF"/>
      <stop offset="100%" style="stop-color:#F857A6"/>
    </linearGradient>
  </defs>
  <rect width="320" height="180" fill="url(#pixarBg)"/>
  <!-- 3D Organ character (liver-like shape) -->
  <path d="M130 35 Q115 50 118 75 Q121 100 135 108 Q149 116 163 116 Q177 116 191 108 Q205 100 208 75 Q211 50 196 35 Q182 20 163 18 Q144 20 130 35 Z" fill="#e8847c" opacity="0.95"/>
  <!-- Big cute eyes -->
  <circle cx="148" cy="58" r="10" fill="#333"/>
  <circle cx="178" cy="58" r="10" fill="#333"/>
  <circle cx="151" cy="55" r="4" fill="white"/>
  <circle cx="181" cy="55" r="4" fill="white"/>
  <!-- Worried mouth -->
  <path d="M153 80 Q163 73 173 80" stroke="#333" stroke-width="2.5" fill="none"/>
  <!-- Arms -->
  <path d="M118 78 L95 92" stroke="#e8847c" stroke-width="10" stroke-linecap="round" opacity="0.9"/>
  <path d="M208 78 L231 92" stroke="#e8847c" stroke-width="10" stroke-linecap="round" opacity="0.9"/>
  <!-- Legs -->
  <path d="M143 116 L135 148" stroke="#e8847c" stroke-width="10" stroke-linecap="round" opacity="0.9"/>
  <path d="M183 116 L191 148" stroke="#e8847c" stroke-width="10" stroke-linecap="round" opacity="0.9"/>
  <!-- Sweat drop -->
  <path d="M200 40 Q205 32 203 45" fill="rgba(255,255,255,0.6)"/>
  <!-- Sparkles -->
  <polygon points="60,40 62,46 68,46 63,50 65,56 60,52 55,56 57,50 52,46 58,46" fill="rgba(255,255,255,0.4)"/>
  <polygon points="265,35 266,39 270,39 267,42 268,46 265,43 262,46 263,42 260,39 264,39" fill="rgba(255,255,255,0.3)"/>
  <!-- Text -->
  <text x="160" y="170" font-family="Arial, sans-serif" font-size="11" fill="white" text-anchor="middle" font-weight="500">3D Organ Review</text>
</svg>
