<svg width="320" height="180" viewBox="0 0 320 180" xmlns="http://www.w3.org/2000/svg">
  <defs>
    <linearGradient id="pixarAnimalBg" x1="0%" y1="0%" x2="100%" y2="100%">
      <stop offset="0%" style="stop-color:#F472B6"/>
      <stop offset="100%" style="stop-color:#A78BFA"/>
    </linearGradient>
  </defs>
  <rect width="320" height="180" fill="url(#pixarAnimalBg)"/>
  <!-- Bunny body -->
  <ellipse cx="160" cy="80" rx="45" ry="40" fill="#fff" opacity="0.95"/>
  <!-- Ears -->
  <ellipse cx="130" cy="30" rx="18" ry="30" fill="#fff" opacity="0.9"/>
  <ellipse cx="190" cy="30" rx="18" ry="30" fill="#fff" opacity="0.9"/>
  <ellipse cx="130" cy="30" rx="10" ry="22" fill="#F9A8D4" opacity="0.6"/>
  <ellipse cx="190" cy="30" rx="10" ry="22" fill="#F9A8D4" opacity="0.6"/>
  <!-- Eyes -->
  <circle cx="142" cy="72" r="10" fill="#333"/>
  <circle cx="178" cy="72" r="10" fill="#333"/>
  <circle cx="145" cy="69" r="4" fill="white"/>
  <circle cx="181" cy="69" r="4" fill="white"/>
  <!-- Nose -->
  <ellipse cx="160" cy="90" rx="6" ry="4" fill="#F9A8D4"/>
  <!-- Mouth -->
  <path d="M152 98 Q160 106 168 98" stroke="#333" stroke-width="2.5" fill="none"/>
  <!-- Paws -->
  <path d="M115 100 L90 120" stroke="#fff" stroke-width="9" stroke-linecap="round" opacity="0.8"/>
  <path d="M205 100 L230 120" stroke="#fff" stroke-width="9" stroke-linecap="round" opacity="0.8"/>
  <!-- Sparkles -->
  <polygon points="60,80 62,86 68,86 63,90 65,96 60,92 55,96 57,90 52,86 58,86" fill="rgba(255,255,255,0.4)"/>
  <polygon points="270,60 271,64 275,64 272,67 273,71 270,68 267,71 268,67 265,64 269,64" fill="rgba(255,255,255,0.3)"/>
  <text x="160" y="170" font-family="Arial, sans-serif" font-size="11" fill="white" text-anchor="middle" font-weight="500">3D Cute Animal</text>
</svg>
