<svg width="320" height="180" viewBox="0 0 320 180" xmlns="http://www.w3.org/2000/svg">
  <defs>
    <linearGradient id="bg8" x1="0%" y1="0%" x2="100%">
      <stop offset="0%" style="stop-color:#e0e5ec"/>
      <stop offset="100%" style="stop-color:#f5f7fa"/>
    </linearGradient>
  </defs>
  <rect width="320" height="180" fill="url(#bg8)"/>
  <!-- Pedestal -->
  <ellipse cx="160" cy="140" rx="80" ry="15" fill="#d0d5dc"/>
  <rect x="80" y="125" width="160" height="15" fill="#d0d5dc"/>
  <ellipse cx="160" cy="125" rx="80" ry="15" fill="#e8ecf1"/>
  <!-- Product Box -->
  <rect x="120" y="40" width="80" height="95" rx="8" fill="white" stroke="#c0c5cc" stroke-width="2"/>
  <rect x="125" y="35" width="70" height="18" rx="6" fill="#6c5ce7"/>
  <!-- Product Image Area -->
  <rect x="130" y="60" width="60" height="55" rx="4" fill="#f0f3f7"/>
  <circle cx="145" cy="80" r="10" fill="#dfe6ed"/>
  <path d="M175 100 L155 80 L135 100" stroke="#c0c5cc" stroke-width="2" fill="none"/>
  <!-- Sparkles -->
  <polygon points="70,50 72,55 77,55 73,58 75,63 70,60 65,63 67,58 63,55 68,55" fill="#ffd700"/>
  <polygon points="250,45 251,48 254,48 252,50 253,53 250,51 247,53 248,50 246,48 249,48" fill="#ffd700"/>
  <polygon points="260,100 261,102 264,102 262,104 263,106 260,105 257,106 258,104 256,102 259,102" fill="#ffd700"/>
  <text x="160" y="170" font-family="Arial, sans-serif" font-size="11" fill="#5a6270" text-anchor="middle" font-weight="500">Product Only</text>
</svg>
