<svg width="320" height="180" viewBox="0 0 320 180" xmlns="http://www.w3.org/2000/svg">
  <defs>
    <linearGradient id="bg10" x1="0%" y1="0%" x2="100%" y2="100%">
      <stop offset="0%" style="stop-color:#f857a6"/>
      <stop offset="100%" style="stop-color:#ff5858"/>
    </linearGradient>
  </defs>
  <rect width="320" height="180" fill="url(#bg10)"/>
  <!-- Trending Arrow -->
  <path d="M40 130 L100 70 L140 90 L200 40" stroke="rgba(255,255,255,0.9)" stroke-width="6" fill="none" stroke-linecap="round" stroke-linejoin="round"/>
  <polygon points="200,40 185,50 195,55" fill="rgba(255,255,255,0.9)"/>
  <!-- Fire emoji -->
  <path d="M240 60 Q255 40 250 20 Q275 50 270 80 Q265 100 250 100 Q235 100 230 80 Q225 50 240 60" fill="#ff9800"/>
  <path d="M245 65 Q255 50 252 35 Q268 55 264 75 Q260 90 250 90 Q240 90 237 75 Q232 55 245 65" fill="#ffeb3b"/>
  <!-- Hearts floating -->
  <path d="M70 50 C70 45, 77 45, 77 50 C77 55, 70 60, 70 60 C70 60, 63 55, 63 50 C63 45, 70 45, 70 50" fill="white"/>
  <path d="M280 110 C280 106, 286 106, 286 110 C286 114, 280 118, 280 118 C280 118, 274 114, 274 110 C274 106, 280 106, 280 110" fill="white"/>
  <!-- View count -->
  <rect x="100" y="100" width="120" height="35" rx="17" fill="rgba(255,255,255,0.95)"/>
  <circle cx="125" cy="117" r="10" fill="#f857a6"/>
  <polygon points="122,113 130,117 122,121" fill="white"/>
  <text x="165" y="122" font-family="Arial, sans-serif" font-size="13" fill="#333" text-anchor="middle" font-weight="bold">1.2M</text>
  <!-- Sparkles -->
  <polygon points="50,90 52,95 57,95 53,98 55,103 50,100 45,103 47,98 43,95 48,95" fill="white"/>
  <polygon points="180,55 181,58 184,58 182,60 183,63 180,61 177,63 178,60 176,58 179,58" fill="white"/>
  <text x="160" y="168" font-family="Arial, sans-serif" font-size="11" fill="white" text-anchor="middle" font-weight="500">Social Viral</text>
</svg>
