<svg width="320" height="180" viewBox="0 0 320 180" xmlns="http://www.w3.org/2000/svg">
  <defs>
    <linearGradient id="bg3" x1="0%" y1="0%" x2="100%" y2="100%">
      <stop offset="0%" style="stop-color:#ff6b6b"/>
      <stop offset="100%" style="stop-color:#feca57"/>
    </linearGradient>
  </defs>
  <rect width="320" height="180" fill="url(#bg3)"/>
  <circle cx="160" cy="80" r="45" fill="rgba(255,255,255,0.95)"/>
  <path d="M140 70 Q145 60 150 70" stroke="#333" stroke-width="3" fill="none" stroke-linecap="round"/>
  <path d="M170 70 Q175 60 180 70" stroke="#333" stroke-width="3" fill="none" stroke-linecap="round"/>
  <path d="M135 90 Q160 115 185 90" stroke="#333" stroke-width="3" fill="none" stroke-linecap="round"/>
  <ellipse cx="130" cy="85" rx="8" ry="5" fill="#ffb8b8" opacity="0.6"/>
  <ellipse cx="190" cy="85" rx="8" ry="5" fill="#ffb8b8" opacity="0.6"/>
  <path d="M80 50 C80 40, 95 40, 95 50 C95 60, 80 70, 80 70 C80 70, 65 60, 65 50 C65 40, 80 40, 80 50" fill="#ff4757"/>
  <path d="M240 45 C240 38, 250 38, 250 45 C250 52, 240 60, 240 60 C240 60, 230 52, 230 45 C230 38, 240 38, 240 45" fill="#ff4757"/>
  <text x="160" y="165" font-family="Arial, sans-serif" font-size="11" fill="white" text-anchor="middle" font-weight="500">Feeling Happy</text>
</svg>
