<svg width="320" height="180" viewBox="0 0 320 180" xmlns="http://www.w3.org/2000/svg">
  <defs>
    <linearGradient id="bg4" x1="0%" y1="0%" x2="100%" y2="100%">
      <stop offset="0%" style="stop-color:#4facfe"/>
      <stop offset="100%" style="stop-color:#00f2fe"/>
    </linearGradient>
  </defs>
  <rect width="320" height="180" fill="url(#bg4)"/>
  <rect x="40" y="40" width="100" height="90" rx="8" fill="rgba(255,255,255,0.9)"/>
  <text x="90" y="60" font-family="Arial, sans-serif" font-size="10" fill="#666" text-anchor="middle">BEFORE</text>
  <circle cx="90" cy="95" r="25" fill="#f0f0f0" stroke="#ddd" stroke-width="1"/>
  <circle cx="82" cy="90" r="3" fill="#666"/>
  <circle cx="98" cy="90" r="3" fill="#666"/>
  <path d="M80 105 Q90 98 100 105" stroke="#666" stroke-width="2" fill="none"/>
  <path d="M155 85 L175 85" stroke="white" stroke-width="3" stroke-linecap="round"/>
  <polygon points="175,85 168,80 168,90" fill="white"/>
  <rect x="180" y="40" width="100" height="90" rx="8" fill="rgba(255,255,255,0.9)"/>
  <text x="230" y="60" font-family="Arial, sans-serif" font-size="10" fill="#666" text-anchor="middle">AFTER</text>
  <circle cx="230" cy="95" r="25" fill="#fff3e0" stroke="#ffb74d" stroke-width="1"/>
  <circle cx="222" cy="90" r="3" fill="#333"/>
  <circle cx="238" cy="90" r="3" fill="#333"/>
  <path d="M220 102 Q230 112 240 102" stroke="#333" stroke-width="2" fill="none"/>
  <polygon points="260,55 262,60 267,60 263,63 265,68 260,65 255,68 257,63 253,60 258,60" fill="#ffd700"/>
  <text x="160" y="165" font-family="Arial, sans-serif" font-size="11" fill="white" text-anchor="middle" font-weight="500">Before - After</text>
</svg>
