<svg width="320" height="180" viewBox="0 0 320 180" xmlns="http://www.w3.org/2000/svg">
  <defs>
    <linearGradient id="bg1" x1="0%" y1="0%" x2="100%" y2="100%">
      <stop offset="0%" style="stop-color:#667eea"/>
      <stop offset="100%" style="stop-color:#764ba2"/>
    </linearGradient>
  </defs>
  <rect width="320" height="180" fill="url(#bg1)"/>
  <!-- Person silhouette -->
  <circle cx="160" cy="60" r="28" fill="rgba(255,255,255,0.9)"/>
  <ellipse cx="160" cy="120" rx="35" ry="25" fill="rgba(255,255,255,0.9)"/>
  <!-- Product box -->
  <rect x="200" y="85" width="50" height="50" rx="8" fill="rgba(255,255,255,0.3)" stroke="white" stroke-width="2"/>
  <circle cx="225" cy="100" r="8" fill="rgba(255,255,255,0.5)"/>
  <!-- Stars -->
  <g fill="#FFD700">
    <polygon points="80,140 83,150 93,150 85,156 88,166 80,160 72,166 75,156 67,150 77,150"/>
    <polygon points="110,145 112,152 120,152 114,156 116,163 110,159 104,163 106,156 100,152 108,152"/>
    <polygon points="140,140 143,150 153,150 145,156 148,166 140,160 132,166 135,156 127,150 137,150"/>
  </g>
  <!-- Text -->
  <text x="160" y="170" font-family="Arial, sans-serif" font-size="11" fill="white" text-anchor="middle" font-weight="500">UGC Review</text>
</svg>
