<svg width="320" height="180" viewBox="0 0 320 180" xmlns="http://www.w3.org/2000/svg">
  <defs>
    <linearGradient id="vbg3" x1="0%" y1="0%" x2="100%" y2="100%">
      <stop offset="0%" style="stop-color:#ff416c"/>
      <stop offset="100%" style="stop-color:#ff4b2b"/>
    </linearGradient>
  </defs>
  <rect width="320" height="180" fill="url(#vbg3)"/>
  <!-- Video frame -->
  <rect x="70" y="25" width="180" height="115" rx="10" fill="rgba(0,0,0,0.25)"/>
  <!-- Happy face reaction -->
  <circle cx="160" cy="70" r="35" fill="rgba(255,255,255,0.95)"/>
  <path d="M145 62 Q150 55 155 62" stroke="#333" stroke-width="3" fill="none" stroke-linecap="round"/>
  <path d="M165 62 Q170 55 175 62" stroke="#333" stroke-width="3" fill="none" stroke-linecap="round"/>
  <path d="M140 80 Q160 100 180 80" stroke="#333" stroke-width="3" fill="none" stroke-linecap="round"/>
  <ellipse cx="135" cy="75" rx="6" ry="4" fill="#ffb8b8" opacity="0.7"/>
  <ellipse cx="185" cy="75" rx="6" ry="4" fill="#ffb8b8" opacity="0.7"/>
  <!-- Floating hearts -->
  <path d="M70 50 C70 45, 78 45, 78 50 C78 55, 70 62, 70 62 C70 62, 62 55, 62 50 C62 45, 70 45, 70 50" fill="white"/>
  <path d="M250 45 C250 41, 256 41, 256 45 C256 49, 250 54, 250 54 C250 54, 244 49, 244 45 C244 41, 250 41, 250 45" fill="white"/>
  <path d="M90 100 C90 97, 95 97, 95 100 C95 103, 90 107, 90 107 C90 107, 85 103, 85 100 C85 97, 90 97, 90 100" fill="white"/>
  <!-- Product in corner -->
  <rect x="200" y="90" width="30" height="40" rx="4" fill="white"/>
  <rect x="203" y="86" width="24" height="10" rx="3" fill="#ff4b2b"/>
  <!-- Play button -->
  <circle cx="160" cy="70" r="12" fill="rgba(255,65,108,0.8)"/>
  <polygon points="157,65 157,75 166,70" fill="white"/>
  <!-- Reaction emojis floating -->
  <circle cx="240" cy="65" r="12" fill="#FFD93D"/>
  <circle cx="235" cy="62" r="2" fill="#333"/>
  <circle cx="245" cy="62" r="2" fill="#333"/>
  <path d="M236 68 Q240 73 244 68" stroke="#333" stroke-width="1.5" fill="none"/>
  <text x="160" y="168" font-family="Arial, sans-serif" font-size="11" fill="white" text-anchor="middle" font-weight="500">Video Reaction</text>
</svg>
