<svg width="320" height="180" viewBox="0 0 320 180" xmlns="http://www.w3.org/2000/svg">
  <defs>
    <linearGradient id="vPixarBg" x1="0%" y1="0%" x2="100%" y2="100%">
      <stop offset="0%" style="stop-color:#1a1a2e"/>
      <stop offset="100%" style="stop-color:#2d1b69"/>
    </linearGradient>
  </defs>
  <rect width="320" height="180" fill="url(#vPixarBg)"/>
  <!-- Phone frame -->
  <rect x="115" y="20" width="90" height="135" rx="10" fill="#2d2d44" stroke="#6C63FF" stroke-width="2"/>
  <rect x="120" y="30" width="80" height="105" rx="5" fill="#1a1040"/>
  <!-- 3D Organ character in phone -->
  <path d="M145 42 Q138 50 140 62 Q142 74 148 77 Q154 80 160 80 Q166 80 172 77 Q178 74 180 62 Q182 50 175 42 Q169 34 160 33 Q151 34 145 42 Z" fill="#e8847c" opacity="0.95"/>
  <!-- Big eyes -->
  <circle cx="153" cy="54" r="5" fill="#333"/>
  <circle cx="167" cy="54" r="5" fill="#333"/>
  <circle cx="154" cy="53" r="2" fill="white"/>
  <circle cx="168" cy="53" r="2" fill="white"/>
  <!-- Worried mouth -->
  <path d="M156 64 Q160 60 164 64" stroke="#333" stroke-width="1.5" fill="none"/>
  <!-- Arms -->
  <path d="M138 65 L130 70" stroke="#e8847c" stroke-width="5" stroke-linecap="round" opacity="0.9"/>
  <path d="M182 65 L190 70" stroke="#e8847c" stroke-width="5" stroke-linecap="round" opacity="0.9"/>
  <!-- Play button overlay -->
  <circle cx="160" cy="85" r="14" fill="rgba(108,99,255,0.85)"/>
  <polygon points="156,79 156,91 167,85" fill="white"/>
  <!-- Video stats -->
  <rect x="125" y="118" width="30" height="10" rx="4" fill="rgba(255,255,255,0.2)"/>
  <text x="140" y="126" font-family="Arial" font-size="7" fill="white" text-anchor="middle">8s</text>
  <rect x="160" y="118" width="35" height="10" rx="4" fill="rgba(255,255,255,0.2)"/>
  <text x="177" y="126" font-family="Arial" font-size="7" fill="white" text-anchor="middle">3D</text>
  <!-- Decorative stars -->
  <polygon points="60,45 62,50 67,50 63,53 65,58 60,55 55,58 57,53 53,50 58,50" fill="#F857A6"/>
  <polygon points="260,35 261,38 264,38 262,40 263,43 260,41 257,43 258,40 256,38 259,38" fill="#6C63FF"/>
  <!-- Text -->
  <text x="160" y="170" font-family="Arial, sans-serif" font-size="11" fill="white" text-anchor="middle" font-weight="500">Video 3D Organ</text>
</svg>
