<svg width="320" height="180" viewBox="0 0 320 180" xmlns="http://www.w3.org/2000/svg">
  <defs>
    <linearGradient id="vPixarFrtBg" x1="0%" y1="0%" x2="100%" y2="100%">
      <stop offset="0%" style="stop-color:#1a1a2e"/>
      <stop offset="100%" style="stop-color:#5c2d0e"/>
    </linearGradient>
  </defs>
  <rect width="320" height="180" fill="url(#vPixarFrtBg)"/>
  <!-- Video frame -->
  <rect x="85" y="15" width="150" height="130" rx="8" fill="#2d2d44" stroke="#F59E0B" stroke-width="2"/>
  <rect x="92" y="25" width="136" height="105" rx="5" fill="#1a1040"/>
  <!-- Orange fruit body -->
  <circle cx="160" cy="65" r="28" fill="#FF8C00" opacity="0.95"/>
  <!-- Leaf -->
  <path d="M155 37 Q160 25 165 37" stroke="#22C55E" stroke-width="3" fill="none"/>
  <ellipse cx="160" cy="39" rx="9" ry="5" fill="#22C55E" opacity="0.8"/>
  <!-- Eyes -->
  <circle cx="150" cy="60" r="6" fill="#333"/>
  <circle cx="170" cy="60" r="6" fill="#333"/>
  <circle cx="152" cy="58" r="2.5" fill="#fff"/>
  <circle cx="172" cy="58" r="2.5" fill="#fff"/>
  <path d="M153 74 Q160 69 167 74" stroke="#333" stroke-width="2" fill="none"/>
  <!-- Play button -->
  <circle cx="160" cy="75" r="16" fill="rgba(245,158,11,0.85)"/>
  <polygon points="155,67 155,83 170,75" fill="#fff"/>
  <!-- Stars -->
  <polygon points="60,40 62,46 68,46 63,50 65,56 60,52 55,56 57,50 52,46 58,46" fill="#EF4444"/>
  <polygon points="270,30 271,34 275,34 272,37 273,41 270,38 267,41 268,37 265,34 269,34" fill="#F59E0B"/>
  <text x="160" y="170" font-family="Arial, sans-serif" font-size="11" fill="white" text-anchor="middle" font-weight="500">VIDEO 3D Fruit</text>
</svg>
