<svg width="320" height="180" viewBox="0 0 320 180" xmlns="http://www.w3.org/2000/svg">
  <defs>
    <linearGradient id="vbg10" x1="0%" y1="0%" x2="100%" y2="100%">
      <stop offset="0%" style="stop-color:#ee0979"/>
      <stop offset="100%" style="stop-color:#ff6a00"/>
    </linearGradient>
  </defs>
  <rect width="320" height="180" fill="url(#vbg10)"/>
  <!-- Trending chart line -->
  <path d="M50 120 L90 100 L120 110 L160 60 L200 50 L250 30" stroke="white" stroke-width="4" fill="none" stroke-linecap="round" stroke-linejoin="round"/>
  <polygon points="250,30 240,40 248,45" fill="white"/>
  <!-- Fire effect -->
  <path d="M270 70 Q280 55 278 40 Q295 65 292 85 Q288 100 278 100 Q268 100 264 85 Q260 60 270 70" fill="#ff9800"/>
  <path d="M273 73 Q280 62 278 50 Q290 68 287 82 Q284 92 278 92 Q272 92 269 82 Q265 62 273 73" fill="#ffeb3b"/>
  <!-- Video views counter -->
  <rect x="60" y="40" width="90" height="35" rx="10" fill="rgba(255,255,255,0.95)"/>
  <circle cx="80" cy="57" r="10" fill="#ee0979"/>
  <polygon points="77,53 77,61 85,57" fill="white"/>
  <text x="120" y="62" font-family="Arial" font-size="14" fill="#333" text-anchor="middle" font-weight="bold">5.2M</text>
  <!-- Floating hearts -->
  <path d="M180 90 C180 85, 188 85, 188 90 C188 95, 180 102, 180 102 C180 102, 172 95, 172 90 C172 85, 180 85, 180 90" fill="white"/>
  <path d="M210 75 C210 71, 216 71, 216 75 C216 79, 210 84, 210 84 C210 84, 204 79, 204 75 C204 71, 210 71, 210 75" fill="white"/>
  <path d="M55 85 C55 82, 60 82, 60 85 C60 88, 55 92, 55 92 C55 92, 50 88, 50 85 C50 82, 55 82, 55 85" fill="white"/>
  <!-- Product flash -->
  <rect x="100" y="85" width="45" height="55" rx="6" fill="white"/>
  <rect x="105" y="80" width="35" height="12" rx="4" fill="#ff6a00"/>
  <rect x="110" y="100" width="25" height="30" rx="3" fill="#fff3e0"/>
  <!-- Sparkle burst -->
  <polygon points="160,100 162,106 168,106 163,110 165,116 160,112 155,116 157,110 152,106 158,106" fill="white"/>
  <polygon points="230,110 231,113 234,113 232,115 233,118 230,116 227,118 228,115 226,113 229,113" fill="white"/>
  <!-- TikTok-style music note -->
  <circle cx="45" cy="120" r="8" fill="white"/>
  <rect x="52" y="100" width="3" height="20" fill="white"/>
  <path d="M55 100 Q65 95 65 105" stroke="white" stroke-width="3" fill="none"/>
  <text x="160" y="168" font-family="Arial, sans-serif" font-size="11" fill="white" text-anchor="middle" font-weight="500">Video Viral</text>
</svg>
