<svg width="320" height="180" viewBox="0 0 320 180" xmlns="http://www.w3.org/2000/svg">
  <defs>
    <linearGradient id="vPixarObjBg" x1="0%" y1="0%" x2="100%" y2="100%">
      <stop offset="0%" style="stop-color:#1a1a2e"/>
      <stop offset="100%" style="stop-color:#0e3a5a"/>
    </linearGradient>
  </defs>
  <rect width="320" height="180" fill="url(#vPixarObjBg)"/>
  <!-- Video frame -->
  <rect x="85" y="15" width="150" height="130" rx="8" fill="#2d2d44" stroke="#06B6D4" stroke-width="2"/>
  <rect x="92" y="25" width="136" height="105" rx="5" fill="#1a1040"/>
  <!-- Box-shaped object -->
  <rect x="132" y="38" width="56" height="60" rx="10" fill="#fff" opacity="0.95"/>
  <!-- Eyes -->
  <circle cx="150" cy="60" r="6" fill="#333"/>
  <circle cx="170" cy="60" r="6" fill="#333"/>
  <circle cx="152" cy="58" r="2.5" fill="#fff"/>
  <circle cx="172" cy="58" r="2.5" fill="#fff"/>
  <path d="M153 76 Q160 70 167 76" stroke="#333" stroke-width="2" fill="none"/>
  <!-- Arms -->
  <path d="M132 70 L115 80" stroke="#fff" stroke-width="6" stroke-linecap="round" opacity="0.8"/>
  <path d="M188 70 L205 80" stroke="#fff" stroke-width="6" stroke-linecap="round" opacity="0.8"/>
  <!-- Play button -->
  <circle cx="160" cy="75" r="16" fill="rgba(6,182,212,0.85)"/>
  <polygon points="155,67 155,83 170,75" fill="#fff"/>
  <!-- Stars -->
  <polygon points="60,40 62,46 68,46 63,50 65,56 60,52 55,56 57,50 52,46 58,46" fill="#8B5CF6"/>
  <polygon points="270,30 271,34 275,34 272,37 273,41 270,38 267,41 268,37 265,34 269,34" fill="#06B6D4"/>
  <text x="160" y="170" font-family="Arial, sans-serif" font-size="11" fill="white" text-anchor="middle" font-weight="500">VIDEO 3D Object</text>
</svg>
