<svg width="320" height="180" viewBox="0 0 320 180" xmlns="http://www.w3.org/2000/svg">
  <defs>
    <linearGradient id="vPixarAniBg" x1="0%" y1="0%" x2="100%" y2="100%">
      <stop offset="0%" style="stop-color:#1a1a2e"/>
      <stop offset="100%" style="stop-color:#4a1942"/>
    </linearGradient>
  </defs>
  <rect width="320" height="180" fill="url(#vPixarAniBg)"/>
  <!-- Video frame -->
  <rect x="85" y="15" width="150" height="130" rx="8" fill="#2d2d44" stroke="#F472B6" stroke-width="2"/>
  <rect x="92" y="25" width="136" height="105" rx="5" fill="#1a1040"/>
  <!-- Bunny body -->
  <ellipse cx="160" cy="72" rx="28" ry="25" fill="#fff" opacity="0.95"/>
  <!-- Ears -->
  <ellipse cx="140" cy="38" rx="12" ry="20" fill="#fff" opacity="0.9"/>
  <ellipse cx="180" cy="38" rx="12" ry="20" fill="#fff" opacity="0.9"/>
  <ellipse cx="140" cy="38" rx="7" ry="14" fill="#F9A8D4" opacity="0.6"/>
  <ellipse cx="180" cy="38" rx="7" ry="14" fill="#F9A8D4" opacity="0.6"/>
  <!-- Eyes -->
  <circle cx="150" cy="66" r="6" fill="#333"/>
  <circle cx="170" cy="66" r="6" fill="#333"/>
  <circle cx="152" cy="64" r="2.5" fill="#fff"/>
  <circle cx="172" cy="64" r="2.5" fill="#fff"/>
  <!-- Nose -->
  <ellipse cx="160" cy="78" rx="4" ry="3" fill="#F9A8D4"/>
  <!-- Play button -->
  <circle cx="160" cy="78" r="16" fill="rgba(244,114,182,0.85)"/>
  <polygon points="155,70 155,86 170,78" fill="#fff"/>
  <!-- Stars -->
  <polygon points="60,40 62,46 68,46 63,50 65,56 60,52 55,56 57,50 52,46 58,46" fill="#A78BFA"/>
  <polygon points="270,30 271,34 275,34 272,37 273,41 270,38 267,41 268,37 265,34 269,34" fill="#F472B6"/>
  <text x="160" y="170" font-family="Arial, sans-serif" font-size="11" fill="white" text-anchor="middle" font-weight="500">VIDEO 3D Animal</text>
</svg>
